<svg width="24" height="24" fill="none" xmlns="http://www.w3.org/2000/svg"><g clip-path="url(#a)" stroke="#000" stroke-width="1.154"><path d="M5.461 5.928a1.154 1.154 0 0 1 1.464-1.464l3.35 1.136c.36.122.757.06 1.062-.168l2.836-2.116a1.154 1.154 0 0 1 1.844.94l-.045 3.538c-.005.38.178.738.488.957l2.889 2.043c.78.553.59 1.76-.324 2.045l-3.38 1.05a1.154 1.154 0 0 0-.759.76l-1.05 3.379a1.154 1.154 0 0 1-2.045.324l-2.043-2.89a1.154 1.154 0 0 0-.957-.487l-3.538.045a1.154 1.154 0 0 1-.94-1.844L6.43 10.34c.228-.305.29-.701.168-1.061L5.461 5.928Z"/><path d="m17 15.996 4 4" stroke-linecap="round"/></g><defs><clipPath id="a"><path fill="#fff" d="M0 0h24v24H0z"/></clipPath></defs></svg>